<svg xmlns="http://www.w3.org/2000/svg" width="82" height="41" viewBox="0 0 82 41"><svg xmlns:xlink="http://www.w3.org/1999/xlink" height="13" width="72" viewBox="0 0 72.2 13.2"><g opacity=".9" fill="#3E8CF2"><path d="M47.5 9.6h23.1l-.1.5-.2.7H40.4s-.3 1.6-.5 2.1c0 .2-.1.2-.1.2H36.1c.1-.6.4-1.8.5-2.4H25c-.7 0-1.3-.1-2-.4-1.8-.7-2.9-2.3-2.8-4.2.1-1.7 1.3-3.3 3.1-3.9.5-.2 1-.3 1.5-.3h2.5v1.2h-2.8c-1.8.2-3.1 1.6-3 3.3.1 1.6 1.5 2.9 3.3 2.9h3.9c6.4.3 12.6.3 18.8.3z"/><path d="M41.9 3.4c.8-.7 1.6-1.1 2.7-1.1 1.3 0 2.2.8 2.4 2.1.2 1.7-.4 3.5-1.4 4.9H37c.4-2 1-4.8 1.4-6.8h3.5v.9zm1.4 2c0-.4 0-.8-.4-.9s-.8 0-1 .5c-.4.9-.6 1.8-.6 2.7 0 .4.3.6.7.6s.7-.3.8-.7c.2-.7.4-1.5.5-2.2zM51.7 9.3h-3.3c-.2 0-.4-.1-.5-.3-.5-.8-.5-1.8-.3-2.7.5-2.3 2.3-3.8 4.7-4 .7-.1 1.5-.1 2.2.1 1.9.4 2.8 1.7 2.5 3.6-.2 1.2-.7 2.2-1.6 3.1-.2.2-.3.2-.6.2h-3.1zm-.4-1.8c0 .4 0 .7.4.9.3.1.7-.1 1-.4.4-1 .7-2 .7-3 0-.2-.1-.5-.3-.6-.3-.1-.6-.1-.8.1-.2.1-.3.3-.4.5-.4.9-.5 1.7-.6 2.5zM31.8 9.3H28.1c0-.1-.1-.5-.1-.6-.1-.9-.1-1-.1-1h3.5V8c-.1.5.1.7.6.8.5 0 .9-.3 1-.7 0-.3-.2-.4-.4-.5-.6-.1-1.3-.3-1.9-.4-.2-.1-.5-.1-.7-.2-1-.4-1.3-1-1.1-2 .2-.9.7-1.7 1.6-2 1.7-.8 3.5-.9 5.1-.1 1 .5 1.3 1.3 1.2 2.2h-3.1v-.2c0-.3 0-.6-.4-.6-.5-.1-1 .1-1.1.4s0 .6.3.7l1.8.3c.5.1 1 .2 1.4.5.5.3.8.7.8 1.4 0 .3-.1.7-.2 1-.3.9-.6 1.1-1.5 1.1-1.1-.4-2-.4-3-.4zM71.1 0c-.2.8-.3 1.5-.5 2.2-.1.3-.1.4-.1.4h1.7l-.1.3c-.1.5-.2 1.1-.3 1.6v.3h-1.4c-.2 0-.3.1-.4.3-.1.7-.3 1.4-.4 2.1-.1.6 0 .8.6.7.2 0 .5 0 .8-.1-.1.4-.3 1.4-.3 1.4h-4.8c-.3 0-.3-.2-.3-.4 0-.7.3-1.5.4-2.2.1-.5.2-1.1.4-1.6l.1-.3h-1c.1-.2.5-2.3.5-2.3h.9l.3-1.3c.9-.1 2.9-.8 3.9-1.1zM62.3 3.4c.3-.2.5-.4.7-.6.3-.2.7-.4 1-.4.8 0 1 .3 1 .3-.1.6-.5 2.2-.6 2.8l-.3-.1c-.3-.1-.5-.1-.8-.1-1-.1-1.4.2-1.6 1.2-.2.8-.4 1.7-.5 2.5-.1.3-.1.4-.1.4h-3.7c.4-2 1.5-6.8 1.5-6.8h3.7c-.1 0-.3.8-.3.8zM16.7 10.8s-1.9 0-2.8-.1c-2.2-.3-3.8-2.3-3.7-4.4 0-1.1.5-2.1 1.3-2.8 1.9-1.8 5-1.7 6.8.1.8.8 1.2 1.8 1.2 2.9v4.3h-2.8zm1.6-4.4c-.1-2.4-2-3.8-4.2-3.3-1.9.5-2.8 1.9-2.6 3.9.2 1.6 1.5 2.8 3.3 2.9h3.4l.1-3.5zM9.5 8.2v2.6H8.2V6.5c0-1.8-1.5-3.2-3.3-3.2-1.9 0-3.4 1.4-3.5 3.2v4.3H.1v-4C0 4.3 1.9 2.4 4.4 2.2c2.4-.3 4.6 1.3 5 3.5.2.9.1 1.8.1 2.5z"/><path d="M1.8 8.4V6.5c0-1.6 1.4-2.8 3.1-2.8s3 1.3 3 2.9v4.3H6.6V6.7c0-.8-.5-1.4-1.2-1.6-.8-.2-1.6 0-2 .6-.2.3-.3.6-.3 1v4.2H1.8V8.4zM25.9 3.7h1.5v1.2H25c-1 0-1.8.7-1.8 1.6s.7 1.6 1.7 1.7h2.4v1.1c-.7 0-2.3.1-2.9-.1-1.5-.3-2.6-1.5-2.5-2.9s1.3-2.6 2.9-2.7c.4.1 1.1.1 1.1.1zM17.9 9.6H14.8c-1.6-.1-2.8-1.1-3-2.6-.2-1.8.6-3.1 2.2-3.5 2-.5 3.9.7 3.9 2.9v3.2zm-1.1-2.4v-1c0-1.1-.8-1.8-1.9-1.9-1.1 0-1.9.7-1.9 1.8v.8c0 1 .7 1.8 1.7 1.8h2c.1-.4.1-1.1.1-1.5zM.5 2.9c-.3 0-.5-.2-.5-.5S.2 2 .5 2s.5.2.5.5-.3.4-.5.4zm0-.7c-.2 0-.3.1-.3.3s.1.3.3.3.3-.1.3-.3c-.1-.2-.2-.3-.3-.3z"/></g></svg><svg xmlns:xlink="http://www.w3.org/1999/xlink" height="14" width="82" y="13" viewBox="0 0 81.8 13.7"><g opacity=".9" fill="#3E8CF2"><path d="M39 10c-.2.1-.5.2-.8.2-.2 0-.5 0-.7-.1-.3-.1-.5-.1-.7-.2l-.1.6c.2.1.5.2.7.2.3.1.5.1.8.1s.5 0 .7-.1l.6-.3c.2-.1.3-.3.4-.5s.1-.4.1-.6-.1-.5-.2-.6c-.1-.2-.2-.3-.4-.5s-.2-.3-.4-.4c-.2-.1-.4-.2-.5-.3-.2-.1-.3-.2-.4-.2-.1-.1-.2-.1-.3-.2s-.1-.2-.2-.2v-.3c0-.5.3-.8 1-.8.2 0 .4 0 .7.1 0 .1.2.1.4.2l.1-.6c-.2-.1-.4-.2-.6-.2s-.5-.1-.8-.1c-.3 0-.5 0-.7.1s-.4.1-.5.3c-.1.1-.2.2-.3.4s-.1.4-.1.6 0 .4.1.5c.1.2.2.3.3.4s.3.2.4.3c.2.2.4.3.5.4.2.1.3.1.5.2.1.1.3.1.4.2l.3.3c.1.1.1.2.1.4-.1.3-.2.5-.4.7zM42.8 7.9l-1.4-2.6h-.8l1.8 3.3v2.1h.7V8.6l1.8-3.3h-.8zM48.3 8.2c-.1-.2-.3-.3-.5-.4s-.4-.2-.5-.3c-.2-.1-.3-.2-.4-.2-.1-.1-.2-.1-.3-.2s-.1-.2-.2-.2v-.3c0-.5.3-.8 1-.8.2 0 .4 0 .7.1.1.1.3.1.5.2l.1-.6c-.2-.1-.4-.2-.6-.2s-.5-.1-.8-.1c-.3 0-.5 0-.7.1s-.4.1-.5.3c-.2.1-.3.3-.4.4-.1.2-.1.4-.1.6s0 .4.1.5c.1.2.2.3.3.4s.3.2.4.3c.2.2.4.3.6.4s.3.1.5.2c.1.1.3.1.4.2l.3.3c.1.1.1.2.1.4 0 .3-.1.5-.3.6s-.5.2-.8.2c-.2 0-.5 0-.7-.1-.5 0-.7 0-.9-.1l-.1.6c.2.1.5.2.7.2.3.1.5.1.8.1s.5 0 .7-.1l.6-.3c.2-.1.3-.3.4-.5s.1-.4.1-.6-.1-.5-.2-.6c0-.2-.1-.4-.3-.5zM49.6 5.9h1.6v4.8h.7V5.9h1.6v-.6h-3.9zM55.3 8.2h2.2v-.6h-2.2V5.9h2.2v-.6h-2.9v5.4h3v-.6h-2.3zM63.5 5.3l-1.8 3.8-1.9-3.8h-.6l-.4 5.4h.7l.2-4.2 1.6 3.2h.7l1.6-3.2.2 4.2h.8l-.4-5.4zM68.5 8.2c-.2-.1-.3-.3-.5-.4s-.4-.2-.5-.3c-.2-.1-.3-.2-.4-.2-.1-.1-.2-.1-.3-.2s-.1-.2-.2-.2v-.3c0-.5.3-.8 1-.8.2 0 .4 0 .7.1 0 .1.2.1.4.2l.1-.6c-.2-.1-.4-.2-.6-.2s-.5-.1-.8-.1c-.3 0-.5 0-.7.1s-.4.1-.5.3c-.2.1-.3.3-.4.4-.1.2-.1.4-.1.6s0 .4.1.5c.1.2.2.3.3.4s.3.2.4.3c.2.1.3.2.5.3s.3.1.5.2c.1.1.3.1.4.2l.3.3c.1.1.1.2.1.4 0 .3-.1.5-.3.6s-.5.2-.8.2c-.2 0-.5 0-.7-.1-.3.1-.5.1-.7 0l-.1.6c.2.1.5.2.7.2.3.1.5.1.8.1s.5 0 .7-.1l.6-.3c.2-.1.3-.3.4-.5s.1-.4.1-.6c0-.3 0-.5-.1-.7l-.4-.4zM73.9 5.3l-2.1 5.4h.8l.4-1.3h2.5l.5 1.3h.8l-2.1-5.4h-.8zm-.7 3.5l1-2.8 1 2.8h-2zM81.2 8.3V10c-.1 0-.3.1-.4.1h-.5c-.7 0-1.3-.2-1.6-.6-.5-.2-.7-.8-.7-1.4 0-.7.2-1.3.6-1.7s.9-.6 1.6-.6c.3 0 .5 0 .8.1.2.1.4.1.7.2l.1-.6c-.2-.1-.5-.2-.7-.2-.3-.1-.6-.1-.9-.1-.5 0-.9.1-1.2.2-.4.1-.7.3-.9.6-.2.2-.4.5-.6.9-.1.3-.2.7-.2 1.2 0 .4.1.8.2 1.1s.3.6.6.9c.2.2.5.4.9.6.3.1.7.2 1.2.2.3 0 .6 0 1-.1.3-.1.6-.1.8-.2V8.3h-.8zM19.1 3h2.5v7.6h-2.5zM28.6 5.3H31V2.8h-2.4c-2.1 0-3.8 1.8-3.8 3.9s1.7 3.9 3.8 3.9H31V8.2h-2.4c-.8 0-1.4-.7-1.4-1.5s.6-1.4 1.4-1.4zM11.6 8.6H13c1.6 0 2.9-1.3 2.9-2.9S14.6 2.8 13 2.8H9.5v7.9h2.2V8.6zm0-3.6H13c.4 0 .7.3.7.7s-.3.7-.7.7h-1.4V5zM21.6 0H0l9.3 2.1h21.6zM9.5 11.7l9.3 2h21.6l-9.3-2z"/></g></svg><svg xmlns:xlink="http://www.w3.org/1999/xlink" height="14" width="71" y="27" viewBox="0 0 70.8 13.9"><g opacity=".9" fill="#3E8CF2"><path d="M32.3 2.1h3.1c.3 0 .5.1.6.2s.2.4.2.7v1c0 .3-.1.5-.2.7-.1.1-.3.2-.6.2H35l1.7 1.7h-1.2L34 4.9h-.8v1.7h-.8V2.1zm.9.7V4h1.9c.1 0 .2 0 .3-.1.1 0 .1-.1.1-.3v-.4c0-.1 0-.2-.1-.3-.1 0-.2-.1-.3-.1h-1.9zM37.6 2.1h3.7v.8h-2.9v1h1.7v.8h-1.7v1.1h2.9v.8h-3.7V2.1zM43.9 2.1h.8l2.1 4.5h-.9l-.4-1h-2.3l-.4 1H42l1.9-4.5zm1.2 2.7L44.3 3l-.8 1.8h1.6zM47.6 2.1h.8v3.6h2.7v.8h-3.6V2.1zM56.1 6.5h-.8V2.9h-1.7v-.8h4.2v.8h-1.7v3.6zM58.5 2.1h.8v4.5h-.8V2.1zM60.8 2.1h.7l1.7 2.7 1.7-2.7h.7v4.5h-.8V3.3c0 .1-.1.2-.1.3s-.1.1-.1.2L63.3 6h-.2l-1.4-2.2c0-.1-.1-.1-.1-.2s-.1-.2-.1-.2v3.3h-.7V2.1zM67 2.1h3.7v.8h-2.9v1h1.7v.8h-1.7v1.1h2.9v.8H67V2.1zM33.1 8.8v2.8h2.6v-1h-1.4v-.7h2.2v2c0 .1-.1.2-.1.3-.1.1-.2.1-.3.2h-3.3c-.1 0-.2-.1-.3-.2s-.1-.2-.2-.3V8.6c0-.1.1-.2.2-.3s.2-.1.3-.2h3.3c.1 0 .2.1.3.2s.1.2.2.3v.6l-.8.2v-.6h-2.7zM38 8h3.1c.3 0 .5.1.6.2s.2.4.2.7v1c0 .3-.1.5-.2.7-.1.1-.3.2-.6.2h-.5l1.7 1.7h-1.2l-1.5-1.7h-.8v1.7H38V8zm.8.8V10h1.9c.1 0 .2 0 .3-.1.1 0 .1-.1.1-.3v-.5c0-.1 0-.2-.1-.3-.1 0-.2-.1-.3-.1h-1.9zM44.6 8h.8l2.1 4.5h-.9l-.4-1h-2.3l-.4 1h-.8L44.6 8zm1.2 2.7L45 8.9l-.8 1.8h1.6zM48.3 8h3.1c.3 0 .5.1.6.2s.2.4.2.7v1c0 .3-.1.5-.2.7-.1.1-.3.2-.6.2h-2.3v1.7h-.8V8zm.9.8V10h1.9c.1 0 .2 0 .3-.1.1 0 .1-.1.1-.3v-.5c0-.1 0-.2-.1-.3-.1 0-.2-.1-.3-.1h-1.9zM53.2 8h.8v1.7h2.6V8h.9v4.5h-.9v-1.9H54v1.9h-.8V8zM59 8h.8v4.5H59V8zM62.2 8.8v2.8h2.3v-1l.8.2v1c0 .1-.1.2-.1.3-.1.1-.2.1-.3.2h-3c-.1 0-.2-.1-.3-.2s-.1-.2-.2-.3V8.6c0-.1.1-.2.2-.3s.2-.1.3-.2h3c.1 0 .2.1.3.2s.1.2.1.3v.9l-.8.2v-.9h-2.3zM67.4 8.8v1H70.1c.1 0 .2.1.3.2s.1.2.2.3v1.6c0 .1-.1.2-.2.3s-.2.1-.3.2h-3c-.1 0-.2-.1-.3-.2s-.1-.2-.2-.3v-.6l.7-.2v.5h2.6v-1H67.2c-.1 0-.2-.1-.3-.2s-.1-.2-.2-.3V8.6c0-.1.1-.2.2-.3s.2-.1.3-.2h2.9c.1 0 .2.1.3.2s.1.2.2.3v.6l-.7.2v-.6h-2.5zM25.8 0h-22C1.7 0 0 1.7 0 3.8v6.3c0 2.1 1.7 3.8 3.8 3.8h22.1c2.1 0 3.8-1.7 3.8-3.8V3.8C29.6 1.7 27.9 0 25.8 0zm1.1 9.5c0 .4 0 .8-.1 1-.1.3-.2.5-.4.6-.2.2-.4.3-.7.3-.3.1-.6.1-1 .1h-6c-.4 0-.7 0-1-.1s-.5-.2-.7-.3c-.2-.2-.3-.4-.4-.6-.1-.3-.1-.6-.1-1V4.3h-1.2v7.3h-2V4.3h-1.2v2.2c0 .6-.2 1.1-.5 1.3-.3.3-.8.4-1.5.4H9l4 3.4h-2.9L6.6 8.2h-2v3.4h-2V2.7h5.5v1.5H4.6v2.5h4.6c.3 0 .5 0 .7-.1.1-.1.2-.3.2-.6V4.9c0-.3-.1-.5-.2-.6-.1 0-.1-.1-.2-.1h-.6V2.7h10.7v1.6h-1.1V10H25V8h-3.3V6.4H27v3.1zm0-4.6l-2 .4v-1h-4.4V2.7h4.2c.4 0 .7 0 1 .1s.5.2.7.3c.2.2.3.4.4.6.1.3.1.6.1 1v.2z"/></g></svg></svg>