<?xml version="1.0" encoding="UTF-8" standalone="no"?>
<!--Icons from directory ""-->
<svg width="82" xmlns="http://www.w3.org/2000/svg" viewBox="0 0 82 41" height="41">
 <svg id="noacsport-logo" enable-background="new 0 0 72.2 13.2" xml:space="preserve" height="13" width="72" version="1.1" y="0" x="0px" xmlns:xlink="http://www.w3.org/1999/xlink" viewBox="0 0 72.2 13.2"><g opacity=".9" fill="#3E8CF2">				<path d="m47.5 9.6h23.1l-0.1 0.5-0.2 0.7h-29.9s-0.3 1.6-0.5 2.1c0 0.2-0.1 0.2-0.1 0.2h-3.7c0.1-0.6 0.4-1.8 0.5-2.4h-11.6c-0.7 0-1.3-0.1-2-0.4-1.8-0.7-2.9-2.3-2.8-4.2 0.1-1.7 1.3-3.3 3.1-3.9 0.5-0.2 1-0.3 1.5-0.3h2.5v1.2h-2.8c-1.8 0.2-3.1 1.6-3 3.3 0.1 1.6 1.5 2.9 3.3 2.9h3.9c6.4 0.3 12.6 0.3 18.8 0.3z"/>				<path d="m41.9 3.4c0.8-0.7 1.6-1.1 2.7-1.1 1.3 0 2.2 0.8 2.4 2.1 0.2 1.7-0.4 3.5-1.4 4.9h-8.6c0.4-2 1-4.8 1.4-6.8h3.5v0.9zm1.4 2c0-0.4 0-0.8-0.4-0.9s-0.8 0-1 0.5c-0.4 0.9-0.6 1.8-0.6 2.7 0 0.4 0.3 0.6 0.7 0.6s0.7-0.3 0.8-0.7c0.2-0.7 0.4-1.5 0.5-2.2z"/>				<path d="m51.7 9.3h-3.3c-0.2 0-0.4-0.1-0.5-0.3-0.5-0.8-0.5-1.8-0.3-2.7 0.5-2.3 2.3-3.8 4.7-4 0.7-0.1 1.5-0.1 2.2 0.1 1.9 0.4 2.8 1.7 2.5 3.6-0.2 1.2-0.7 2.2-1.6 3.1-0.2 0.2-0.3 0.2-0.6 0.2h-3.1zm-0.4-1.8c0 0.4 0 0.7 0.4 0.9 0.3 0.1 0.7-0.1 1-0.4 0.4-1 0.7-2 0.7-3 0-0.2-0.1-0.5-0.3-0.6-0.3-0.1-0.6-0.1-0.8 0.1-0.2 0.1-0.3 0.3-0.4 0.5-0.4 0.9-0.5 1.7-0.6 2.5z"/>				<path d="m31.8 9.3h-3.7c0-0.1-0.1-0.5-0.1-0.6-0.1-0.9-0.1-1-0.1-1h3.5v0.3c-0.1 0.5 0.1 0.7 0.6 0.8 0.5 0 0.9-0.3 1-0.7 0-0.3-0.2-0.4-0.4-0.5-0.6-0.1-1.3-0.3-1.9-0.4-0.2-0.1-0.5-0.1-0.7-0.2-1-0.4-1.3-1-1.1-2 0.2-0.9 0.7-1.7 1.6-2 1.7-0.8 3.5-0.9 5.1-0.1 1 0.5 1.3 1.3 1.2 2.2h-3.1v-0.2c0-0.3 0-0.6-0.4-0.6-0.5-0.1-1 0.1-1.1 0.4s0 0.6 0.3 0.7l1.8 0.3c0.5 0.1 1 0.2 1.4 0.5 0.5 0.3 0.8 0.7 0.8 1.4 0 0.3-0.1 0.7-0.2 1-0.3 0.9-0.6 1.1-1.5 1.1-1.1-0.4-2-0.4-3-0.4z"/>				<path d="m71.1 0c-0.2 0.8-0.3 1.5-0.5 2.2-0.1 0.3-0.1 0.4-0.1 0.4h1.7l-0.1 0.3c-0.1 0.5-0.2 1.1-0.3 1.6v0.3h-1.4c-0.2 0-0.3 0.1-0.4 0.3-0.1 0.7-0.3 1.4-0.4 2.1-0.1 0.6 0 0.8 0.6 0.7 0.2 0 0.5 0 0.8-0.1-0.1 0.4-0.3 1.4-0.3 1.4h-4.8c-0.3 0-0.3-0.2-0.3-0.4 0-0.7 0.3-1.5 0.4-2.2 0.1-0.5 0.2-1.1 0.4-1.6l0.1-0.3h-1c0.1-0.2 0.5-2.3 0.5-2.3h0.9l0.3-1.3c0.9-0.1 2.9-0.8 3.9-1.1z"/>				<path d="m62.3 3.4c0.3-0.2 0.5-0.4 0.7-0.6 0.3-0.2 0.7-0.4 1-0.4 0.8 0 1 0.3 1 0.3-0.1 0.6-0.5 2.2-0.6 2.8l-0.3-0.1c-0.3-0.1-0.5-0.1-0.8-0.1-1-0.1-1.4 0.2-1.6 1.2-0.2 0.8-0.4 1.7-0.5 2.5-0.1 0.3-0.1 0.4-0.1 0.4h-3.7c0.4-2 1.5-6.8 1.5-6.8h3.7c-0.1 0-0.3 0.8-0.3 0.8z"/>				<path d="m16.7 10.8s-1.9 0-2.8-0.1c-2.2-0.3-3.8-2.3-3.7-4.4 0-1.1 0.5-2.1 1.3-2.8 1.9-1.8 5-1.7 6.8 0.1 0.8 0.8 1.2 1.8 1.2 2.9v4.3h-2.8zm1.6-4.4c-0.1-2.4-2-3.8-4.2-3.3-1.9 0.5-2.8 1.9-2.6 3.9 0.2 1.6 1.5 2.8 3.3 2.9h3.4l0.1-3.5z"/>				<path d="m9.5 8.2v2.6h-1.3v-4.3c0-1.8-1.5-3.2-3.3-3.2-1.9 0-3.4 1.4-3.5 3.2v4.3h-1.3v-4c-0.1-2.5 1.8-4.4 4.3-4.6 2.4-0.3 4.6 1.3 5 3.5 0.2 0.9 0.1 1.8 0.1 2.5z"/>				<path d="m1.8 8.4v-1.9c0-1.6 1.4-2.8 3.1-2.8s3 1.3 3 2.9v4.3h-1.3v-4.2c0-0.8-0.5-1.4-1.2-1.6-0.8-0.2-1.6 0-2 0.6-0.2 0.3-0.3 0.6-0.3 1v4.2h-1.3v-2.5z"/>				<path d="m25.9 3.7h1.5v1.2h-2.4c-1 0-1.8 0.7-1.8 1.6s0.7 1.6 1.7 1.7h2.4v1.1c-0.7 0-2.3 0.1-2.9-0.1-1.5-0.3-2.6-1.5-2.5-2.9s1.3-2.6 2.9-2.7c0.4 0.1 1.1 0.1 1.1 0.1z"/>				<path d="m17.9 9.6h-3.1c-1.6-0.1-2.8-1.1-3-2.6-0.2-1.8 0.6-3.1 2.2-3.5 2-0.5 3.9 0.7 3.9 2.9v3.2zm-1.1-2.4v-1c0-1.1-0.8-1.8-1.9-1.9-1.1 0-1.9 0.7-1.9 1.8v0.8c0 1 0.7 1.8 1.7 1.8h2c0.1-0.4 0.1-1.1 0.1-1.5z"/>				<path d="m0.5 2.9c-0.3 0-0.5-0.2-0.5-0.5s0.2-0.4 0.5-0.4 0.5 0.2 0.5 0.5-0.3 0.4-0.5 0.4zm0-0.7c-0.2 0-0.3 0.1-0.3 0.3s0.1 0.3 0.3 0.3 0.3-0.1 0.3-0.3c-0.1-0.2-0.2-0.3-0.3-0.3z"/></g></svg>
 <svg id="picsystemsag-logo" enable-background="new 0 0 81.8 13.7" xml:space="preserve" height="14" width="82" version="1.1" y="13" x="0px" xmlns:xlink="http://www.w3.org/1999/xlink" viewBox="0 0 81.8 13.7"><g opacity=".9" fill="#3E8CF2">		<path d="m39 10c-0.2 0.1-0.5 0.2-0.8 0.2-0.2 0-0.5 0-0.7-0.1-0.3-0.1-0.5-0.1-0.7-0.2l-0.1 0.6c0.2 0.1 0.5 0.2 0.7 0.2 0.3 0.1 0.5 0.1 0.8 0.1s0.5 0 0.7-0.1l0.6-0.3c0.2-0.1 0.3-0.3 0.4-0.5s0.1-0.4 0.1-0.6-0.1-0.5-0.2-0.6c-0.1-0.2-0.2-0.3-0.4-0.5s-0.2-0.3-0.4-0.4c-0.2-0.1-0.4-0.2-0.5-0.3-0.2-0.1-0.3-0.2-0.4-0.2-0.1-0.1-0.2-0.1-0.3-0.2s-0.1-0.2-0.2-0.2v-0.3c0-0.5 0.3-0.8 1-0.8 0.2 0 0.4 0 0.7 0.1 0 0.1 0.2 0.1 0.4 0.2l0.1-0.6c-0.2-0.1-0.4-0.2-0.6-0.2s-0.5-0.1-0.8-0.1c-0.3 0-0.5 0-0.7 0.1s-0.4 0.1-0.5 0.3c-0.1 0.1-0.2 0.2-0.3 0.4s-0.1 0.4-0.1 0.6 0 0.4 0.1 0.5c0.1 0.2 0.2 0.3 0.3 0.4s0.3 0.2 0.4 0.3c0.2 0.2 0.4 0.3 0.5 0.4 0.2 0.1 0.3 0.1 0.5 0.2 0.1 0.1 0.3 0.1 0.4 0.2l0.3 0.3c0.1 0.1 0.1 0.2 0.1 0.4-0.1 0.3-0.2 0.5-0.4 0.7z"/>		<polygon points="42.8 7.9 41.4 5.3 40.6 5.3 42.4 8.6 42.4 10.7 43.1 10.7 43.1 8.6 44.9 5.3 44.1 5.3"/>		<path d="m48.3 8.2c-0.1-0.2-0.3-0.3-0.5-0.4s-0.4-0.2-0.5-0.3c-0.2-0.1-0.3-0.2-0.4-0.2-0.1-0.1-0.2-0.1-0.3-0.2s-0.1-0.2-0.2-0.2v-0.3c0-0.5 0.3-0.8 1-0.8 0.2 0 0.4 0 0.7 0.1 0.1 0.1 0.3 0.1 0.5 0.2l0.1-0.6c-0.2-0.1-0.4-0.2-0.6-0.2s-0.5-0.1-0.8-0.1c-0.3 0-0.5 0-0.7 0.1s-0.4 0.1-0.5 0.3c-0.2 0.1-0.3 0.3-0.4 0.4-0.1 0.2-0.1 0.4-0.1 0.6s0 0.4 0.1 0.5c0.1 0.2 0.2 0.3 0.3 0.4s0.3 0.2 0.4 0.3c0.2 0.2 0.4 0.3 0.6 0.4s0.3 0.1 0.5 0.2c0.1 0.1 0.3 0.1 0.4 0.2l0.3 0.3c0.1 0.1 0.1 0.2 0.1 0.4 0 0.3-0.1 0.5-0.3 0.6s-0.5 0.2-0.8 0.2c-0.2 0-0.5 0-0.7-0.1-0.5 0-0.7 0-0.9-0.1l-0.1 0.6c0.2 0.1 0.5 0.2 0.7 0.2 0.3 0.1 0.5 0.1 0.8 0.1s0.5 0 0.7-0.1l0.6-0.3c0.2-0.1 0.3-0.3 0.4-0.5s0.1-0.4 0.1-0.6-0.1-0.5-0.2-0.6c0-0.2-0.1-0.4-0.3-0.5z"/>		<polygon points="49.6 5.9 51.2 5.9 51.2 10.7 51.9 10.7 51.9 5.9 53.5 5.9 53.5 5.3 49.6 5.3"/>		<polygon points="55.3 8.2 57.5 8.2 57.5 7.6 55.3 7.6 55.3 5.9 57.5 5.9 57.5 5.3 54.6 5.3 54.6 10.7 57.6 10.7 57.6 10.1 55.3 10.1"/>		<polygon points="63.5 5.3 61.7 9.1 59.8 5.3 59.2 5.3 58.8 10.7 59.5 10.7 59.7 6.5 61.3 9.7 62 9.7 63.6 6.5 63.8 10.7 64.6 10.7 64.2 5.3"/>		<path d="m68.5 8.2c-0.2-0.1-0.3-0.3-0.5-0.4s-0.4-0.2-0.5-0.3c-0.2-0.1-0.3-0.2-0.4-0.2-0.1-0.1-0.2-0.1-0.3-0.2s-0.1-0.2-0.2-0.2v-0.3c0-0.5 0.3-0.8 1-0.8 0.2 0 0.4 0 0.7 0.1 0 0.1 0.2 0.1 0.4 0.2l0.1-0.6c-0.2-0.1-0.4-0.2-0.6-0.2s-0.5-0.1-0.8-0.1c-0.3 0-0.5 0-0.7 0.1s-0.4 0.1-0.5 0.3c-0.2 0.1-0.3 0.3-0.4 0.4-0.1 0.2-0.1 0.4-0.1 0.6s0 0.4 0.1 0.5c0.1 0.2 0.2 0.3 0.3 0.4s0.3 0.2 0.4 0.3c0.2 0.1 0.3 0.2 0.5 0.3s0.3 0.1 0.5 0.2c0.1 0.1 0.3 0.1 0.4 0.2l0.3 0.3c0.1 0.1 0.1 0.2 0.1 0.4 0 0.3-0.1 0.5-0.3 0.6s-0.5 0.2-0.8 0.2c-0.2 0-0.5 0-0.7-0.1-0.3 0.1-0.5 0.1-0.7 0l-0.1 0.6c0.2 0.1 0.5 0.2 0.7 0.2 0.3 0.1 0.5 0.1 0.8 0.1s0.5 0 0.7-0.1l0.6-0.3c0.2-0.1 0.3-0.3 0.4-0.5s0.1-0.4 0.1-0.6c0-0.3 0-0.5-0.1-0.7l-0.4-0.4z"/>		<path d="m73.9 5.3l-2.1 5.4h0.8l0.4-1.3h2.5l0.5 1.3h0.8l-2.1-5.4h-0.8zm-0.7 3.5l1-2.8 1 2.8h-2z"/>		<path d="m81.2 8.3v1.7c-0.1 0-0.3 0.1-0.4 0.1h-0.5c-0.7 0-1.3-0.2-1.6-0.6-0.5-0.2-0.7-0.8-0.7-1.4 0-0.7 0.2-1.3 0.6-1.7s0.9-0.6 1.6-0.6c0.3 0 0.5 0 0.8 0.1 0.2 0.1 0.4 0.1 0.7 0.2l0.1-0.6c-0.2-0.1-0.5-0.2-0.7-0.2-0.3-0.1-0.6-0.1-0.9-0.1-0.5 0-0.9 0.1-1.2 0.2-0.4 0.1-0.7 0.3-0.9 0.6-0.2 0.2-0.4 0.5-0.6 0.9-0.1 0.3-0.2 0.7-0.2 1.2 0 0.4 0.1 0.8 0.2 1.1s0.3 0.6 0.6 0.9c0.2 0.2 0.5 0.4 0.9 0.6 0.3 0.1 0.7 0.2 1.2 0.2 0.3 0 0.6 0 1-0.1 0.3-0.1 0.6-0.1 0.8-0.2v-2.3h-0.8z"/>		<rect y="3" x="19.1" width="2.5" height="7.6"/>		<path d="m28.6 5.3h2.4v-2.5h-2.4c-2.1 0-3.8 1.8-3.8 3.9s1.7 3.9 3.8 3.9h2.4v-2.4h-2.4c-0.8 0-1.4-0.7-1.4-1.5s0.6-1.4 1.4-1.4z"/>		<path d="m11.6 8.6h1.4c1.6 0 2.9-1.3 2.9-2.9s-1.3-2.9-2.9-2.9h-3.5v7.9h2.2v-2.1zm0-3.6h1.4c0.4 0 0.7 0.3 0.7 0.7s-0.3 0.7-0.7 0.7h-1.4v-1.4z"/>		<polygon points="21.6 0 0 0 9.3 2.1 30.9 2.1"/>		<polygon points="9.5 11.7 18.8 13.7 40.4 13.7 31.1 11.7"/></g></svg>
 <svg id="rtg-logo" enable-background="new 0 0 70.8 13.9" xml:space="preserve" height="14" width="71" version="1.1" y="27" x="0px" xmlns:xlink="http://www.w3.org/1999/xlink" viewBox="0 0 70.8 13.9"><g opacity=".9" fill="#3E8CF2">			<path d="m32.3 2.1h3.1c0.3 0 0.5 0.1 0.6 0.2s0.2 0.4 0.2 0.7v1c0 0.3-0.1 0.5-0.2 0.7-0.1 0.1-0.3 0.2-0.6 0.2h-0.4l1.7 1.7h-1.2l-1.5-1.7h-0.8v1.7h-0.8v-4.5zm0.9 0.7v1.2h1.9c0.1 0 0.2 0 0.3-0.1 0.1 0 0.1-0.1 0.1-0.3v-0.4c0-0.1 0-0.2-0.1-0.3-0.1 0-0.2-0.1-0.3-0.1h-1.9z"/>		<path d="m37.6 2.1h3.7v0.8h-2.9v1h1.7v0.8h-1.7v1.1h2.9v0.8h-3.7v-4.5z"/>		<path d="m43.9 2.1h0.8l2.1 4.5h-0.9l-0.4-1h-2.3l-0.4 1h-0.8l1.9-4.5zm1.2 2.7l-0.8-1.8-0.8 1.8h1.6z"/>		<path d="m47.6 2.1h0.8v3.6h2.7v0.8h-3.6v-4.4z"/>		<path d="m56.1 6.5h-0.8v-3.6h-1.7v-0.8h4.2v0.8h-1.7v3.6z"/>		<path d="m58.5 2.1h0.8v4.5h-0.8v-4.5z"/>		<path d="m60.8 2.1h0.7l1.7 2.7 1.7-2.7h0.7v4.5h-0.8v-3.3c0 0.1-0.1 0.2-0.1 0.3s-0.1 0.1-0.1 0.2l-1.3 2.2h-0.2l-1.4-2.2c0-0.1-0.1-0.1-0.1-0.2s-0.1-0.2-0.1-0.2v3.3h-0.7v-4.6z"/>		<path d="m67 2.1h3.7v0.8h-2.9v1h1.7v0.8h-1.7v1.1h2.9v0.8h-3.7v-4.5z"/>		<path d="m33.1 8.8v2.8h2.6v-1h-1.4v-0.7h2.2v2c0 0.1-0.1 0.2-0.1 0.3-0.1 0.1-0.2 0.1-0.3 0.2h-3.3c-0.1 0-0.2-0.1-0.3-0.2s-0.1-0.2-0.2-0.3v-3.3c0-0.1 0.1-0.2 0.2-0.3s0.2-0.1 0.3-0.2h3.3c0.1 0 0.2 0.1 0.3 0.2s0.1 0.2 0.2 0.3v0.6l-0.8 0.2v-0.6h-2.7z"/>		<path d="m38 8h3.1c0.3 0 0.5 0.1 0.6 0.2s0.2 0.4 0.2 0.7v1c0 0.3-0.1 0.5-0.2 0.7-0.1 0.1-0.3 0.2-0.6 0.2h-0.5l1.7 1.7h-1.2l-1.5-1.7h-0.8v1.7h-0.8v-4.5zm0.8 0.8v1.2h1.9c0.1 0 0.2 0 0.3-0.1 0.1 0 0.1-0.1 0.1-0.3v-0.5c0-0.1 0-0.2-0.1-0.3-0.1 0-0.2-0.1-0.3-0.1h-1.9z"/>		<path d="m44.6 8h0.8l2.1 4.5h-0.9l-0.4-1h-2.3l-0.4 1h-0.8l1.9-4.5zm1.2 2.7l-0.8-1.8-0.8 1.8h1.6z"/>		<path d="m48.3 8h3.1c0.3 0 0.5 0.1 0.6 0.2s0.2 0.4 0.2 0.7v1c0 0.3-0.1 0.5-0.2 0.7-0.1 0.1-0.3 0.2-0.6 0.2h-2.3v1.7h-0.8v-4.5zm0.9 0.8v1.2h1.9c0.1 0 0.2 0 0.3-0.1 0.1 0 0.1-0.1 0.1-0.3v-0.5c0-0.1 0-0.2-0.1-0.3-0.1 0-0.2-0.1-0.3-0.1h-1.9z"/>		<path d="m53.2 8h0.8v1.7h2.6v-1.7h0.9v4.5h-0.9v-1.9h-2.6v1.9h-0.8v-4.5z"/>		<path d="m59 8h0.8v4.5h-0.8v-4.5z"/>		<path d="m62.2 8.8v2.8h2.3v-1l0.8 0.2v1c0 0.1-0.1 0.2-0.1 0.3-0.1 0.1-0.2 0.1-0.3 0.2h-3c-0.1 0-0.2-0.1-0.3-0.2s-0.1-0.2-0.2-0.3v-3.2c0-0.1 0.1-0.2 0.2-0.3s0.2-0.1 0.3-0.2h3c0.1 0 0.2 0.1 0.3 0.2s0.1 0.2 0.1 0.3v0.9l-0.8 0.2v-0.9h-2.3z"/>		<path d="m67.4 8.8v1h2.7c0.1 0 0.2 0.1 0.3 0.2s0.1 0.2 0.2 0.3v1.6c0 0.1-0.1 0.2-0.2 0.3s-0.2 0.1-0.3 0.2h-3c-0.1 0-0.2-0.1-0.3-0.2s-0.1-0.2-0.2-0.3v-0.6l0.7-0.2v0.5h2.6v-1h-2.7c-0.1 0-0.2-0.1-0.3-0.2s-0.1-0.2-0.2-0.3v-1.5c0-0.1 0.1-0.2 0.2-0.3s0.2-0.1 0.3-0.2h2.9c0.1 0 0.2 0.1 0.3 0.2s0.1 0.2 0.2 0.3v0.6l-0.7 0.2v-0.6h-2.5z"/>				<path d="m25.8 0h-22c-2.1 0-3.8 1.7-3.8 3.8v6.3c0 2.1 1.7 3.8 3.8 3.8h22.1c2.1 0 3.8-1.7 3.8-3.8v-6.3c-0.1-2.1-1.8-3.8-3.9-3.8zm1.1 9.5c0 0.4 0 0.8-0.1 1-0.1 0.3-0.2 0.5-0.4 0.6-0.2 0.2-0.4 0.3-0.7 0.3-0.3 0.1-0.6 0.1-1 0.1h-6c-0.4 0-0.7 0-1-0.1s-0.5-0.2-0.7-0.3c-0.2-0.2-0.3-0.4-0.4-0.6-0.1-0.3-0.1-0.6-0.1-1v-5.2h-1.2v7.3h-2v-7.3h-1.2v2.2c0 0.6-0.2 1.1-0.5 1.3-0.3 0.3-0.8 0.4-1.5 0.4h-1.1l4 3.4h-2.9l-3.5-3.4h-2v3.4h-2v-8.9h5.5v1.5h-3.5v2.5h4.6c0.3 0 0.5 0 0.7-0.1 0.1-0.1 0.2-0.3 0.2-0.6v-1.1c0-0.3-0.1-0.5-0.2-0.6-0.1 0-0.1-0.1-0.2-0.1h-0.6v-1.5h10.7v1.6h-1.1v5.7h6.3v-2h-3.3v-1.6h5.3v3.1zm0-4.6l-2 0.4v-1h-4.4v-1.6h4.2c0.4 0 0.7 0 1 0.1s0.5 0.2 0.7 0.3c0.2 0.2 0.3 0.4 0.4 0.6 0.1 0.3 0.1 0.6 0.1 1v0.2z"/></g></svg>
</svg>
